<mxfile host="app.diagrams.net" modified="2024-05-14T18:44:51.211Z" agent="Mozilla/5.0 (Windows NT 10.0; Win64; x64) AppleWebKit/537.36 (KHTML, like Gecko) Chrome/124.0.0.0 Safari/537.36" etag="dBhIoTM3JphJs-n858ZP" version="24.4.0" type="github">
  <diagram name="Page-1" id="qza65eXmghzADJEvhYD6">
    <mxGraphModel dx="1909" dy="949" grid="1" gridSize="10" guides="1" tooltips="1" connect="1" arrows="1" fold="1" page="1" pageScale="1" pageWidth="850" pageHeight="1100" math="0" shadow="0">
      <root>
        <mxCell id="0" />
        <mxCell id="1" parent="0" />
        <mxCell id="vJWz_MJ5VgrPek8_Wv07-81" value="sma-db" style="swimlane;startSize=20;horizontal=1;childLayout=treeLayout;horizontalTree=0;sortEdges=1;resizable=0;containerType=tree;fontSize=12;" vertex="1" parent="1">
          <mxGeometry x="290" y="280" width="2058" height="550" as="geometry" />
        </mxCell>
        <mxCell id="vJWz_MJ5VgrPek8_Wv07-82" value="main-db" style="whiteSpace=wrap;html=1;" vertex="1" parent="vJWz_MJ5VgrPek8_Wv07-81">
          <mxGeometry x="964.5" y="40" width="100" height="40" as="geometry" />
        </mxCell>
        <mxCell id="vJWz_MJ5VgrPek8_Wv07-83" value="users" style="whiteSpace=wrap;html=1;" vertex="1" parent="vJWz_MJ5VgrPek8_Wv07-81">
          <mxGeometry x="370" y="130" width="100" height="40" as="geometry" />
        </mxCell>
        <mxCell id="vJWz_MJ5VgrPek8_Wv07-84" value="" style="edgeStyle=elbowEdgeStyle;elbow=vertical;html=1;rounded=1;curved=0;sourcePerimeterSpacing=0;targetPerimeterSpacing=0;startSize=6;endSize=6;" edge="1" parent="vJWz_MJ5VgrPek8_Wv07-81" source="vJWz_MJ5VgrPek8_Wv07-82" target="vJWz_MJ5VgrPek8_Wv07-83">
          <mxGeometry relative="1" as="geometry" />
        </mxCell>
        <mxCell id="vJWz_MJ5VgrPek8_Wv07-85" value="chats" style="whiteSpace=wrap;html=1;" vertex="1" parent="vJWz_MJ5VgrPek8_Wv07-81">
          <mxGeometry x="1559" y="130" width="100" height="40" as="geometry" />
        </mxCell>
        <mxCell id="vJWz_MJ5VgrPek8_Wv07-86" value="" style="edgeStyle=elbowEdgeStyle;elbow=vertical;html=1;rounded=1;curved=0;sourcePerimeterSpacing=0;targetPerimeterSpacing=0;startSize=6;endSize=6;" edge="1" parent="vJWz_MJ5VgrPek8_Wv07-81" source="vJWz_MJ5VgrPek8_Wv07-82" target="vJWz_MJ5VgrPek8_Wv07-85">
          <mxGeometry relative="1" as="geometry" />
        </mxCell>
        <mxCell id="vJWz_MJ5VgrPek8_Wv07-87" value="" style="edgeStyle=elbowEdgeStyle;elbow=vertical;html=1;rounded=1;curved=0;sourcePerimeterSpacing=0;targetPerimeterSpacing=0;startSize=6;endSize=6;" edge="1" target="vJWz_MJ5VgrPek8_Wv07-88" source="vJWz_MJ5VgrPek8_Wv07-83" parent="vJWz_MJ5VgrPek8_Wv07-81">
          <mxGeometry relative="1" as="geometry">
            <mxPoint x="-5838.5" y="660" as="sourcePoint" />
          </mxGeometry>
        </mxCell>
        <mxCell id="vJWz_MJ5VgrPek8_Wv07-88" value="user#id" style="whiteSpace=wrap;html=1;" vertex="1" parent="vJWz_MJ5VgrPek8_Wv07-81">
          <mxGeometry x="370" y="220" width="100" height="40" as="geometry" />
        </mxCell>
        <mxCell id="vJWz_MJ5VgrPek8_Wv07-89" value="" style="edgeStyle=elbowEdgeStyle;elbow=vertical;html=1;rounded=1;curved=0;sourcePerimeterSpacing=0;targetPerimeterSpacing=0;startSize=6;endSize=6;" edge="1" target="vJWz_MJ5VgrPek8_Wv07-90" source="vJWz_MJ5VgrPek8_Wv07-88" parent="vJWz_MJ5VgrPek8_Wv07-81">
          <mxGeometry relative="1" as="geometry">
            <mxPoint x="-5908.5" y="750" as="sourcePoint" />
          </mxGeometry>
        </mxCell>
        <mxCell id="vJWz_MJ5VgrPek8_Wv07-90" value="username" style="whiteSpace=wrap;html=1;" vertex="1" parent="vJWz_MJ5VgrPek8_Wv07-81">
          <mxGeometry x="20" y="310" width="100" height="40" as="geometry" />
        </mxCell>
        <mxCell id="vJWz_MJ5VgrPek8_Wv07-91" value="" style="edgeStyle=elbowEdgeStyle;elbow=vertical;html=1;rounded=1;curved=0;sourcePerimeterSpacing=0;targetPerimeterSpacing=0;startSize=6;endSize=6;" edge="1" target="vJWz_MJ5VgrPek8_Wv07-92" source="vJWz_MJ5VgrPek8_Wv07-88" parent="vJWz_MJ5VgrPek8_Wv07-81">
          <mxGeometry relative="1" as="geometry">
            <mxPoint x="-5908.5" y="750" as="sourcePoint" />
          </mxGeometry>
        </mxCell>
        <mxCell id="vJWz_MJ5VgrPek8_Wv07-92" value="user-chats" style="whiteSpace=wrap;html=1;" vertex="1" parent="vJWz_MJ5VgrPek8_Wv07-81">
          <mxGeometry x="160" y="310" width="100" height="40" as="geometry" />
        </mxCell>
        <mxCell id="vJWz_MJ5VgrPek8_Wv07-93" value="" style="edgeStyle=elbowEdgeStyle;elbow=vertical;html=1;rounded=1;curved=0;sourcePerimeterSpacing=0;targetPerimeterSpacing=0;startSize=6;endSize=6;" edge="1" target="vJWz_MJ5VgrPek8_Wv07-94" source="vJWz_MJ5VgrPek8_Wv07-92" parent="vJWz_MJ5VgrPek8_Wv07-81">
          <mxGeometry relative="1" as="geometry">
            <mxPoint x="-5768.5" y="840" as="sourcePoint" />
          </mxGeometry>
        </mxCell>
        <mxCell id="vJWz_MJ5VgrPek8_Wv07-94" value="chat#id" style="whiteSpace=wrap;html=1;" vertex="1" parent="vJWz_MJ5VgrPek8_Wv07-81">
          <mxGeometry x="160" y="400" width="100" height="40" as="geometry" />
        </mxCell>
        <mxCell id="vJWz_MJ5VgrPek8_Wv07-95" value="" style="edgeStyle=elbowEdgeStyle;elbow=vertical;html=1;rounded=1;curved=0;sourcePerimeterSpacing=0;targetPerimeterSpacing=0;startSize=6;endSize=6;" edge="1" target="vJWz_MJ5VgrPek8_Wv07-96" source="vJWz_MJ5VgrPek8_Wv07-88" parent="vJWz_MJ5VgrPek8_Wv07-81">
          <mxGeometry relative="1" as="geometry">
            <mxPoint x="-5688.5" y="450" as="sourcePoint" />
          </mxGeometry>
        </mxCell>
        <mxCell id="vJWz_MJ5VgrPek8_Wv07-96" value="user-friends" style="whiteSpace=wrap;html=1;" vertex="1" parent="vJWz_MJ5VgrPek8_Wv07-81">
          <mxGeometry x="300" y="310" width="100" height="40" as="geometry" />
        </mxCell>
        <mxCell id="vJWz_MJ5VgrPek8_Wv07-97" value="" style="edgeStyle=elbowEdgeStyle;elbow=vertical;html=1;rounded=1;curved=0;sourcePerimeterSpacing=0;targetPerimeterSpacing=0;startSize=6;endSize=6;" edge="1" target="vJWz_MJ5VgrPek8_Wv07-98" source="vJWz_MJ5VgrPek8_Wv07-88" parent="vJWz_MJ5VgrPek8_Wv07-81">
          <mxGeometry relative="1" as="geometry">
            <mxPoint x="-5478.5" y="450" as="sourcePoint" />
          </mxGeometry>
        </mxCell>
        <mxCell id="vJWz_MJ5VgrPek8_Wv07-98" value="user-info" style="whiteSpace=wrap;html=1;" vertex="1" parent="vJWz_MJ5VgrPek8_Wv07-81">
          <mxGeometry x="720" y="310" width="100" height="40" as="geometry" />
        </mxCell>
        <mxCell id="vJWz_MJ5VgrPek8_Wv07-99" value="" style="edgeStyle=elbowEdgeStyle;elbow=vertical;html=1;rounded=1;curved=0;sourcePerimeterSpacing=0;targetPerimeterSpacing=0;startSize=6;endSize=6;" edge="1" target="vJWz_MJ5VgrPek8_Wv07-100" source="vJWz_MJ5VgrPek8_Wv07-98" parent="vJWz_MJ5VgrPek8_Wv07-81">
          <mxGeometry relative="1" as="geometry">
            <mxPoint x="-5198.5" y="540" as="sourcePoint" />
          </mxGeometry>
        </mxCell>
        <mxCell id="vJWz_MJ5VgrPek8_Wv07-100" value="email" style="whiteSpace=wrap;html=1;" vertex="1" parent="vJWz_MJ5VgrPek8_Wv07-81">
          <mxGeometry x="370" y="400" width="100" height="40" as="geometry" />
        </mxCell>
        <mxCell id="vJWz_MJ5VgrPek8_Wv07-101" value="" style="edgeStyle=elbowEdgeStyle;elbow=vertical;html=1;rounded=1;curved=0;sourcePerimeterSpacing=0;targetPerimeterSpacing=0;startSize=6;endSize=6;" edge="1" target="vJWz_MJ5VgrPek8_Wv07-102" source="vJWz_MJ5VgrPek8_Wv07-98" parent="vJWz_MJ5VgrPek8_Wv07-81">
          <mxGeometry relative="1" as="geometry">
            <mxPoint x="-5198.5" y="540" as="sourcePoint" />
          </mxGeometry>
        </mxCell>
        <mxCell id="vJWz_MJ5VgrPek8_Wv07-102" value="real-name" style="whiteSpace=wrap;html=1;" vertex="1" parent="vJWz_MJ5VgrPek8_Wv07-81">
          <mxGeometry x="510" y="400" width="100" height="40" as="geometry" />
        </mxCell>
        <mxCell id="vJWz_MJ5VgrPek8_Wv07-103" value="" style="edgeStyle=elbowEdgeStyle;elbow=vertical;html=1;rounded=1;curved=0;sourcePerimeterSpacing=0;targetPerimeterSpacing=0;startSize=6;endSize=6;" edge="1" target="vJWz_MJ5VgrPek8_Wv07-104" source="vJWz_MJ5VgrPek8_Wv07-98" parent="vJWz_MJ5VgrPek8_Wv07-81">
          <mxGeometry relative="1" as="geometry">
            <mxPoint x="-4890.5" y="540" as="sourcePoint" />
          </mxGeometry>
        </mxCell>
        <mxCell id="vJWz_MJ5VgrPek8_Wv07-104" value="email" style="whiteSpace=wrap;html=1;" vertex="1" parent="vJWz_MJ5VgrPek8_Wv07-81">
          <mxGeometry x="650" y="400" width="100" height="40" as="geometry" />
        </mxCell>
        <mxCell id="vJWz_MJ5VgrPek8_Wv07-105" value="" style="edgeStyle=elbowEdgeStyle;elbow=vertical;html=1;rounded=1;curved=0;sourcePerimeterSpacing=0;targetPerimeterSpacing=0;startSize=6;endSize=6;" edge="1" target="vJWz_MJ5VgrPek8_Wv07-106" source="vJWz_MJ5VgrPek8_Wv07-98" parent="vJWz_MJ5VgrPek8_Wv07-81">
          <mxGeometry relative="1" as="geometry">
            <mxPoint x="-4554.5" y="540" as="sourcePoint" />
          </mxGeometry>
        </mxCell>
        <mxCell id="vJWz_MJ5VgrPek8_Wv07-106" value="profile-pic" style="whiteSpace=wrap;html=1;" vertex="1" parent="vJWz_MJ5VgrPek8_Wv07-81">
          <mxGeometry x="790" y="400" width="100" height="40" as="geometry" />
        </mxCell>
        <mxCell id="vJWz_MJ5VgrPek8_Wv07-107" value="" style="edgeStyle=elbowEdgeStyle;elbow=vertical;html=1;rounded=1;curved=0;sourcePerimeterSpacing=0;targetPerimeterSpacing=0;startSize=6;endSize=6;" edge="1" target="vJWz_MJ5VgrPek8_Wv07-108" source="vJWz_MJ5VgrPek8_Wv07-98" parent="vJWz_MJ5VgrPek8_Wv07-81">
          <mxGeometry relative="1" as="geometry">
            <mxPoint x="-4190.5" y="540" as="sourcePoint" />
          </mxGeometry>
        </mxCell>
        <mxCell id="vJWz_MJ5VgrPek8_Wv07-108" value="phone-number" style="whiteSpace=wrap;html=1;" vertex="1" parent="vJWz_MJ5VgrPek8_Wv07-81">
          <mxGeometry x="930" y="400" width="100" height="40" as="geometry" />
        </mxCell>
        <mxCell id="vJWz_MJ5VgrPek8_Wv07-109" value="" style="edgeStyle=elbowEdgeStyle;elbow=vertical;html=1;rounded=1;curved=0;sourcePerimeterSpacing=0;targetPerimeterSpacing=0;startSize=6;endSize=6;" edge="1" target="vJWz_MJ5VgrPek8_Wv07-110" source="vJWz_MJ5VgrPek8_Wv07-98" parent="vJWz_MJ5VgrPek8_Wv07-81">
          <mxGeometry relative="1" as="geometry">
            <mxPoint x="-3798.5" y="540" as="sourcePoint" />
          </mxGeometry>
        </mxCell>
        <mxCell id="vJWz_MJ5VgrPek8_Wv07-110" value="user-bio" style="whiteSpace=wrap;html=1;" vertex="1" parent="vJWz_MJ5VgrPek8_Wv07-81">
          <mxGeometry x="1070" y="400" width="100" height="40" as="geometry" />
        </mxCell>
        <mxCell id="vJWz_MJ5VgrPek8_Wv07-111" value="" style="edgeStyle=elbowEdgeStyle;elbow=vertical;html=1;rounded=1;curved=0;sourcePerimeterSpacing=0;targetPerimeterSpacing=0;startSize=6;endSize=6;" edge="1" target="vJWz_MJ5VgrPek8_Wv07-112" source="vJWz_MJ5VgrPek8_Wv07-85" parent="vJWz_MJ5VgrPek8_Wv07-81">
          <mxGeometry relative="1" as="geometry">
            <mxPoint x="-3308.5" y="360" as="sourcePoint" />
          </mxGeometry>
        </mxCell>
        <mxCell id="vJWz_MJ5VgrPek8_Wv07-112" value="chat#id" style="whiteSpace=wrap;html=1;" vertex="1" parent="vJWz_MJ5VgrPek8_Wv07-81">
          <mxGeometry x="1559" y="220" width="100" height="40" as="geometry" />
        </mxCell>
        <mxCell id="vJWz_MJ5VgrPek8_Wv07-113" value="" style="edgeStyle=elbowEdgeStyle;elbow=vertical;html=1;rounded=1;curved=0;sourcePerimeterSpacing=0;targetPerimeterSpacing=0;startSize=6;endSize=6;" edge="1" target="vJWz_MJ5VgrPek8_Wv07-114" source="vJWz_MJ5VgrPek8_Wv07-112" parent="vJWz_MJ5VgrPek8_Wv07-81">
          <mxGeometry relative="1" as="geometry">
            <mxPoint x="-2538.5" y="450" as="sourcePoint" />
          </mxGeometry>
        </mxCell>
        <mxCell id="vJWz_MJ5VgrPek8_Wv07-114" value="chat-members" style="whiteSpace=wrap;html=1;" vertex="1" parent="vJWz_MJ5VgrPek8_Wv07-81">
          <mxGeometry x="1350" y="310" width="100" height="40" as="geometry" />
        </mxCell>
        <mxCell id="vJWz_MJ5VgrPek8_Wv07-115" value="" style="edgeStyle=elbowEdgeStyle;elbow=vertical;html=1;rounded=1;curved=0;sourcePerimeterSpacing=0;targetPerimeterSpacing=0;startSize=6;endSize=6;" edge="1" target="vJWz_MJ5VgrPek8_Wv07-116" source="vJWz_MJ5VgrPek8_Wv07-114" parent="vJWz_MJ5VgrPek8_Wv07-81">
          <mxGeometry relative="1" as="geometry">
            <mxPoint x="-1628.5" y="540" as="sourcePoint" />
          </mxGeometry>
        </mxCell>
        <mxCell id="vJWz_MJ5VgrPek8_Wv07-116" value="user#id1" style="whiteSpace=wrap;html=1;" vertex="1" parent="vJWz_MJ5VgrPek8_Wv07-81">
          <mxGeometry x="1210" y="400" width="100" height="40" as="geometry" />
        </mxCell>
        <mxCell id="vJWz_MJ5VgrPek8_Wv07-117" value="" style="edgeStyle=elbowEdgeStyle;elbow=vertical;html=1;rounded=1;curved=0;sourcePerimeterSpacing=0;targetPerimeterSpacing=0;startSize=6;endSize=6;" edge="1" target="vJWz_MJ5VgrPek8_Wv07-118" source="vJWz_MJ5VgrPek8_Wv07-114" parent="vJWz_MJ5VgrPek8_Wv07-81">
          <mxGeometry relative="1" as="geometry">
            <mxPoint x="-823.5" y="540" as="sourcePoint" />
          </mxGeometry>
        </mxCell>
        <mxCell id="vJWz_MJ5VgrPek8_Wv07-118" value="user#id2" style="whiteSpace=wrap;html=1;" vertex="1" parent="vJWz_MJ5VgrPek8_Wv07-81">
          <mxGeometry x="1350" y="400" width="100" height="40" as="geometry" />
        </mxCell>
        <mxCell id="vJWz_MJ5VgrPek8_Wv07-119" value="" style="edgeStyle=elbowEdgeStyle;elbow=vertical;html=1;rounded=1;curved=0;sourcePerimeterSpacing=0;targetPerimeterSpacing=0;startSize=6;endSize=6;" edge="1" target="vJWz_MJ5VgrPek8_Wv07-120" source="vJWz_MJ5VgrPek8_Wv07-114" parent="vJWz_MJ5VgrPek8_Wv07-81">
          <mxGeometry relative="1" as="geometry">
            <mxPoint x="16.5" y="540" as="sourcePoint" />
          </mxGeometry>
        </mxCell>
        <mxCell id="vJWz_MJ5VgrPek8_Wv07-120" value="user#id3" style="whiteSpace=wrap;html=1;" vertex="1" parent="vJWz_MJ5VgrPek8_Wv07-81">
          <mxGeometry x="1490" y="400" width="100" height="40" as="geometry" />
        </mxCell>
        <mxCell id="vJWz_MJ5VgrPek8_Wv07-121" value="" style="edgeStyle=elbowEdgeStyle;elbow=vertical;html=1;rounded=1;curved=0;sourcePerimeterSpacing=0;targetPerimeterSpacing=0;startSize=6;endSize=6;" edge="1" target="vJWz_MJ5VgrPek8_Wv07-122" source="vJWz_MJ5VgrPek8_Wv07-112" parent="vJWz_MJ5VgrPek8_Wv07-81">
          <mxGeometry relative="1" as="geometry">
            <mxPoint x="891.5" y="450" as="sourcePoint" />
          </mxGeometry>
        </mxCell>
        <mxCell id="vJWz_MJ5VgrPek8_Wv07-122" value="messages" style="whiteSpace=wrap;html=1;" vertex="1" parent="vJWz_MJ5VgrPek8_Wv07-81">
          <mxGeometry x="1768" y="310" width="100" height="40" as="geometry" />
        </mxCell>
        <mxCell id="vJWz_MJ5VgrPek8_Wv07-127" value="" style="edgeStyle=elbowEdgeStyle;elbow=vertical;html=1;rounded=1;curved=0;sourcePerimeterSpacing=0;targetPerimeterSpacing=0;startSize=6;endSize=6;" edge="1" target="vJWz_MJ5VgrPek8_Wv07-128" source="vJWz_MJ5VgrPek8_Wv07-122" parent="vJWz_MJ5VgrPek8_Wv07-81">
          <mxGeometry relative="1" as="geometry">
            <mxPoint x="1882" y="540" as="sourcePoint" />
          </mxGeometry>
        </mxCell>
        <mxCell id="vJWz_MJ5VgrPek8_Wv07-128" value="message#id" style="whiteSpace=wrap;html=1;" vertex="1" parent="vJWz_MJ5VgrPek8_Wv07-81">
          <mxGeometry x="1758" y="400" width="120" height="40" as="geometry" />
        </mxCell>
        <mxCell id="vJWz_MJ5VgrPek8_Wv07-131" value="" style="edgeStyle=elbowEdgeStyle;elbow=vertical;html=1;rounded=1;curved=0;sourcePerimeterSpacing=0;targetPerimeterSpacing=0;startSize=6;endSize=6;" edge="1" target="vJWz_MJ5VgrPek8_Wv07-132" source="vJWz_MJ5VgrPek8_Wv07-128" parent="vJWz_MJ5VgrPek8_Wv07-81">
          <mxGeometry relative="1" as="geometry">
            <mxPoint x="2012" y="630" as="sourcePoint" />
          </mxGeometry>
        </mxCell>
        <mxCell id="vJWz_MJ5VgrPek8_Wv07-132" value="message-owner" style="whiteSpace=wrap;html=1;" vertex="1" parent="vJWz_MJ5VgrPek8_Wv07-81">
          <mxGeometry x="1598" y="490" width="120" height="40" as="geometry" />
        </mxCell>
        <mxCell id="vJWz_MJ5VgrPek8_Wv07-133" value="" style="edgeStyle=elbowEdgeStyle;elbow=vertical;html=1;rounded=1;curved=0;sourcePerimeterSpacing=0;targetPerimeterSpacing=0;startSize=6;endSize=6;" edge="1" target="vJWz_MJ5VgrPek8_Wv07-134" source="vJWz_MJ5VgrPek8_Wv07-128" parent="vJWz_MJ5VgrPek8_Wv07-81">
          <mxGeometry relative="1" as="geometry">
            <mxPoint x="2012" y="630" as="sourcePoint" />
          </mxGeometry>
        </mxCell>
        <mxCell id="vJWz_MJ5VgrPek8_Wv07-134" value="message-owner" style="whiteSpace=wrap;html=1;" vertex="1" parent="vJWz_MJ5VgrPek8_Wv07-81">
          <mxGeometry x="1758" y="490" width="120" height="40" as="geometry" />
        </mxCell>
        <mxCell id="vJWz_MJ5VgrPek8_Wv07-135" value="" style="edgeStyle=elbowEdgeStyle;elbow=vertical;html=1;rounded=1;curved=0;sourcePerimeterSpacing=0;targetPerimeterSpacing=0;startSize=6;endSize=6;" edge="1" target="vJWz_MJ5VgrPek8_Wv07-136" source="vJWz_MJ5VgrPek8_Wv07-128" parent="vJWz_MJ5VgrPek8_Wv07-81">
          <mxGeometry relative="1" as="geometry">
            <mxPoint x="2060" y="630" as="sourcePoint" />
          </mxGeometry>
        </mxCell>
        <mxCell id="vJWz_MJ5VgrPek8_Wv07-136" value="sent-timing" style="whiteSpace=wrap;html=1;" vertex="1" parent="vJWz_MJ5VgrPek8_Wv07-81">
          <mxGeometry x="1918" y="490" width="120" height="40" as="geometry" />
        </mxCell>
      </root>
    </mxGraphModel>
  </diagram>
</mxfile>
